<svg xmlns="http://www.w3.org/2000/svg" viewBox="0 0 24 24" width="24" height="24">
  <rect x="1" y="1" width="4" height="4" fill="#00f0f0" />
  <rect x="5" y="1" width="4" height="4" fill="#00f0f0" />
  <rect x="9" y="1" width="4" height="4" fill="#00f0f0" />
  <rect x="13" y="1" width="4" height="4" fill="#00f0f0" />
  
  <rect x="5" y="5" width="4" height="4" fill="#a000f0" />
  <rect x="9" y="5" width="4" height="4" fill="#a000f0" />
  <rect x="13" y="5" width="4" height="4" fill="#a000f0" />
  
  <rect x="9" y="9" width="4" height="4" fill="#a000f0" />
  
  <rect x="1" y="9" width="4" height="4" fill="#f00000" />
  <rect x="5" y="9" width="4" height="4" fill="#f00000" />
  
  <rect x="1" y="13" width="4" height="4" fill="#f00000" />
  <rect x="5" y="13" width="4" height="4" fill="#f00000" />
  
  <rect x="9" y="13" width="4" height="4" fill="#00f000" />
  <rect x="13" y="13" width="4" height="4" fill="#00f000" />
  
  <rect x="9" y="17" width="4" height="4" fill="#00f000" />
  <rect x="13" y="17" width="4" height="4" fill="#00f000" />
</svg>